# xmcd
#
# Track frame offsets:
#	150
#	17633
#	33541
#	53949
#	68511
#	85694
#	96942
#	116401
#	132384
#	155867
#	174325
#	199165
#	217248
#	234432
#	253940
#	269923
#
# Disc length: 3845
#
# Revision: 1
# Processed by: cddbd v1.5.2PL0 Copyright (c) Steve Scherf et al.
# Submitted via: kJams Lite (development) 1.0patch50.6
#
DISCID=ed0f0310
DTITLE=Jose Jose - Exitos de Jose J. vol.3
DYEAR=2009
DGENRE=balada
TTITLE0=Jose Jose - Buenos Dias Amor
TTITLE1=Jose Jose - Soy Asi
TTITLE2=Jose Jose - Tu Primera Vez
TTITLE3=Jose Jose - Gracias
TTITLE4=Jose Jose - Lo Que Quedo De Mi
TTITLE5=Jose Jose - Cuidado
TTITLE6=Jose Jose - Ojala Que Te Mueras
TTITLE7=Jose Jose - Dejame Conocerte
TTITLE8=Jose Jose - Esta Noche Te Voy A Estrenar
TTITLE9=Jose Jose - Aun Estoy De Pie
TTITLE10=Jose Jose - Voy A Llenarte Toda
TTITLE11=Jose Jose - Cuando Vayas Conmigo
TTITLE12=Jose Jose - Lo Que Quedo De Mi (+V)
TTITLE13=Jose Jose - Ojala Que Te Mueras
TTITLE14=Jose Jose - Dejame Conocerte (+V)
TTITLE15=Jose Jose - Aun Estoy De Pie (+V)
EXTD=
EXTT0=CDGKB-188
EXTT1=CDGKB-188
EXTT2=CDGKB-188
EXTT3=CDGKB-188
EXTT4=CDGKB-188
EXTT5=CDGKB-188
EXTT6=CDGKB-188
EXTT7=CDGKB-188
EXTT8=CDGKB-188
EXTT9=CDGKB-188
EXTT10=CDGKB-188
EXTT11=CDGKB-188
EXTT12=CDGKB-188
EXTT13=CDGKB-188
EXTT14=CDGKB-188
EXTT15=CDGKB-188
PLAYORDER=
